<?xml version="1.0" encoding="UTF-8"?>
<svg width="600px" height="108px" viewBox="0 0 600 108" version="1.1" xmlns="http://www.w3.org/2000/svg" xmlns:xlink="http://www.w3.org/1999/xlink">
    <title>taschen_logo</title>
    <g id="Page-1" stroke="none" stroke-width="1" fill="none" fill-rule="evenodd">
        <g id="Artboard" transform="translate(0.000000, -129.000000)" fill="#000000" fill-rule="nonzero">
            <path d="M194.630315,129 C174.677085,129 159.796295,139.78075 159.796295,161.36741 C159.796295,193.73379 210.005515,188.45519 210.005515,207.27377 C210.005515,212.2454 206.297945,220.73052 194.657715,220.73052 C186.363345,220.73052 176.857625,216.75653 169.114575,210.09662 L158.974105,225.11561 C170.393965,233.59196 182.172335,236.87308 192.465155,236.87308 C212.421695,236.87308 230.176895,225.73609 230.176895,204.14938 C230.176895,168.93166 179.255145,178.10858 179.255145,156.51642 C179.255145,151.55143 182.815805,145.11521 192.465155,145.11521 C200.759535,145.11521 210.237905,149.09028 217.980835,155.74906 L228.148805,140.73007 C216.726755,132.25485 204.927515,129 194.630315,129 Z M291.650265,129 C264.094405,129 240.481875,146.97014 240.481875,182.93653 C240.481875,218.90848 264.094405,236.90051 291.650265,236.90051 C301.946485,236.90051 315.669625,233.61826 327.087255,225.14301 L316.919345,210.12405 C309.176415,216.78286 299.944645,220.48387 291.650265,220.48387 C273.913715,220.48387 261.557685,204.94309 261.557685,182.93653 C261.557685,160.93111 273.913715,145.41664 291.650265,145.41664 C299.929315,145.41664 309.176415,149.0903 316.919345,155.74906 L327.087255,140.7575 C315.669625,132.28228 301.946485,129 291.650265,129 L291.650265,129 Z M-3,131.52145 L-3,147.77365 L24.214928,147.77365 L24.214928,234.35169 L44.797435,234.35169 L44.797435,147.77365 L71.984965,147.77365 L71.984965,131.52145 L-3,131.52145 L-3,131.52145 Z M101.967985,131.52145 L59.268225,234.35169 L79.604025,234.35169 L87.661645,213.90622 L126.387395,213.90622 L134.445035,234.35169 L156.945985,234.35169 L114.218825,131.52145 L101.967985,131.52145 L101.967985,131.52145 Z M338.077375,131.52145 L338.077375,234.35169 L358.659875,234.35169 L358.659875,191.07638 L400.455255,191.07638 L400.455255,234.35169 L421.037705,234.35169 L421.037705,131.52145 L400.455255,131.52145 L400.455255,174.82416 L358.659875,174.82416 L358.659875,131.52145 L338.077375,131.52145 L338.077375,131.52145 Z M440.907635,131.52145 L440.907635,234.35169 L504.107665,234.35169 L504.107665,218.09946 L461.517515,218.09946 L461.517515,191.07638 L495.145645,191.07638 L495.145645,174.82416 L461.517515,174.82416 L461.517515,147.77365 L504.107665,147.77365 L504.107665,131.52145 L440.907635,131.52145 L440.907635,131.52145 Z M520.387265,131.52145 L520.387265,234.35169 L538.941685,234.35169 L538.941685,172.05609 L588.027245,234.35169 L599.866985,234.35169 L599.866985,131.52145 L581.723625,131.52145 L581.723625,192.91265 L532.884775,131.52145 L520.387265,131.52145 L520.387265,131.52145 Z M107.010825,164.68368 L120.001645,197.65403 L94.047415,197.65403 L107.010825,164.68368 Z" id="taschen_logo"></path>
        </g>
    </g>
</svg>